<?xml version="1.0" standalone="no"?><!DOCTYPE svg PUBLIC "-//W3C//DTD SVG 1.1//EN" "http://www.w3.org/Graphics/SVG/1.1/DTD/svg11.dtd"><svg t="1747983875304" class="icon" viewBox="0 0 1024 1024" version="1.1" xmlns="http://www.w3.org/2000/svg" p-id="8368" width="64" height="64" xmlns:xlink="http://www.w3.org/1999/xlink"><path d="M855.271085 482.531026H388.079595l-106.011156-211.079352V126.75327h91.42818V94.791335h-91.42818V0h-32.03769v94.791335h-87.122066v31.961935h87.122066V272.660776L56.897528 631.764805h39.972105v392.235195H903.856416V689.491659h63.246056L855.271085 482.531026zM265.143017 600.442806c-26.823505 0-48.585331-21.685074-48.585331-48.508578 0-26.861383 21.761827-48.623209 48.585331-48.623209 26.89926 0 48.66009 21.761827 48.660091 48.623209 0 26.823505-21.76083 48.508579-48.660091 48.508578m510.788906 99.09745c33.702323 2.190935 60.525828 29.168942 62.187469 63.131426h-62.187469v-63.131426z m-213.156653 0c33.776085 2.190935 60.600587 29.168942 62.262228 63.131426h-62.262228v-63.131426z m-10.728405 286.526065h-60.449076v-71.479506h60.449076v71.479506z m0-82.245789h-60.449076v-59.807145h60.449076v59.807145z m0-70.575422h-60.449076v-59.956663h60.449076v59.956663z m0-70.573428h-60.145056c1.661642-33.171036 27.351801-59.804155 60.145056-62.978918v62.978918z m73.368415 223.394639h-62.564255v-71.479506h62.564255v71.479506z m0-82.245789h-62.564255v-59.807145h62.564255v59.807145z m0-70.575422h-62.564255v-59.956663h62.564255v59.956663z m139.789234 152.821211h-60.601583v-71.479506h60.601583v71.479506z m0-82.245789h-60.601583v-59.807145h60.601583v59.807145z m0-70.575422h-60.601583v-59.956663h60.601583v59.956663z m0-70.573428h-60.222805c1.662639-33.171036 27.350804-59.804155 60.222805-62.978918v62.978918z m73.294654 223.394639h-62.643001v-71.479506h62.643001v71.479506z m0-82.245789h-62.643001v-59.807145h62.643001v59.807145z m0-70.575422h-62.643001v-59.956663h62.643001v59.956663z" fill="#2c2c2c" p-id="8369"></path></svg>