<?xml version="1.0" standalone="no"?><!DOCTYPE svg PUBLIC "-//W3C//DTD SVG 1.1//EN" "http://www.w3.org/Graphics/SVG/1.1/DTD/svg11.dtd"><svg t="1747983072189" class="icon" viewBox="0 0 1024 1024" version="1.1" xmlns="http://www.w3.org/2000/svg" p-id="3097" width="64" height="64" xmlns:xlink="http://www.w3.org/1999/xlink"><path d="M538.54208 755.53792c-1.73056-34.08896-2.51904-68.27008-5.44256-102.272-2.85696-33.17248-3.74272-66.19136-11.96032-99.38944-7.2192-29.18912-1.18784-61.57824-1.88928-92.53376-0.256-11.40224 1.5872-18.44736 13.7472-23.5264 17.71008-7.3984 29.52704-33.06496 26.58816-51.0976-4.02944-24.87808-22.31808-42.0864-46.7968-44.05248-23.15776-1.85344-44.8256 14.33088-51.46624 38.45632-6.4 23.25504 3.70176 46.81216 27.06432 57.56416 10.1376 4.66944 13.32224 10.17856 12.22144 20.35712-4.46464 41.45664 0.91136 82.58048-8.19712 125.10208-11.8528 55.36256-8.00256 114.0736-10.91584 171.35104-3.92192 61.05088-7.54688 122.11712-12.0064 183.1168-0.96768 13.29664 2.26304 18.54464 16.36864 17.5104a332.31872 332.31872 0 0 1 48.26624 0c14.04928 1.01376 17.31584-4.08576 16.32768-17.46944-4.45952-61.0048-8.03328-122.07104-11.90912-183.1168z m-45.312-360.66304c0.0768-11.1872 6.46656-18.52416 17.792-18.10432 9.2672 0.33792 15.92832 7.15776 15.41632 16.42496-0.52224 9.344-5.71392 16.94208-17.78176 17.17248-7.99232-1.63328-15.49312-5.30432-15.42656-15.49312zM492.96896 194.88768c0-40.59648-0.09728-81.19808 0.10752-121.79456 0.0256-5.78048-2.69312-13.41952 7.88992-14.26944 9.69216-0.78336 12.18048 5.05344 13.66016 12.5184 16.25088 81.90464 32.16896 163.87072 49.04448 245.64736 2.4832 12.032-4.13696 18.55488-10.23488 25.216-5.96992 6.52288-11.59168-1.55136-16.98816-3.9168-7.77728-3.39456-15.68256-7.28576-24.08448-5.7088-19.072 3.57888-20.48-6.51264-20.1472-21.70368 0.8448-38.64576 0.2816-77.32224 0.2816-115.98336l0.47104-0.00512z" fill="#2c2c2c" p-id="3098"></path><path d="M759.66464 527.2576c0.3072 17.71008-5.26336 22.07232-21.38624 16.61952-62.56128-21.1712-124.94848-42.79808-187.59168-63.72352-11.60192-3.87584-15.93856-12.54912-18.64704-22.50752-2.71872-10.03008 7.94112-10.17344 12.86656-14.11584 6.65088-5.34016 13.81888-10.60352 16.47104-18.52928 6.15936-18.38592 15.0016-15.01184 28.41088-7.00416 51.44064 30.70464 103.57248 60.23168 155.36128 90.368 7.552 4.39296 17.28 7.71584 14.5152 18.8928zM285.53216 546.23232c0.96256-7.30112 3.00032-11.70944 1.69984-14.6176-11.20256-24.97024 5.77536-37.2992 21.46816-50.944 35.5072-30.88896 70.8864-61.93664 105.64608-93.65504 9.0112-8.22272 18.6112-8.576 28.65152-6.656 11.78112 2.2528 5.44768 12.66176 6.4 19.30752 1.60256 11.18208 4.91008 21.48352 11.93472 30.1312 6.29248 7.75168 3.85024 12.08832-3.77856 16.50688-56.56576 32.71168-113.01888 65.61792-172.02176 99.92704zM255.72352 763.24864c-0.41472-12.2112 0.37376-24.6016-1.46944-36.58752-4.77184-31.05792-8.37632-62.06976-7.23968-93.62944 0.41984-11.61216 1.99168-19.51232 13.39392-26.52672 17.46432-10.74688 18.8416-35.5328 5.38624-50.8672-13.32736-15.1808-37.92896-15.22688-51.39968-0.09728-13.56288 15.23712-12.50816 40.72448 5.32992 50.7392 13.1072 7.36256 13.94176 16.04096 13.55776 28.01664-0.64 19.95776 3.88096 41.33376-1.86368 59.5712-7.43424 23.59296-5.01248 46.66368-6.60992 69.9904-3.60448 53.20192-7.59296 106.37312-10.6752 159.61088-2.18624 37.69856-1.6128 36.84864 36.68992 37.72928 15.67744 0.3584 17.73568-5.12 16.71168-18.82112-4.46976-59.66848-7.9616-119.40864-11.81184-179.12832z m-25.92256-183.35744c-0.4864-7.04512 3.54304-10.66496 10.44992-10.77248 6.4512-0.1024 9.344 4.06528 9.32864 9.80992-0.01024 5.71904-2.82624 9.78944-11.09504 9.84064-4.1216-0.12288-8.26368-2.79552-8.68352-8.87808zM818.8416 529.51552c-0.55808 9.216-2.69824 17.26976-16.10752 9.99936-3.36896-1.82272-7.39328-4.5056-10.73664-4.02944-24.61696 3.5072-23.86944-11.66336-23.56736-29.05088 0.82432-46.44864 0.34304-92.91264 0.64512-139.37664 0.04096-6.47168-2.88256-15.80032 8.27904-16.128 9.23648-0.27648 8.39168 8.00768 9.61024 14.09024 10.15808 50.50368 20.34176 101.00736 30.41792 151.52128 0.77312 3.78368 0.88576 7.70048 1.4592 12.97408zM226.65216 442.89536c0-25.77408-0.0768-51.54304 0.05632-77.31712 0.03072-6.13888-1.81248-14.07488 7.86944-14.69952 8.02304-0.52224 8.42752 6.13888 9.57952 11.91424 10.32192 51.70176 20.9152 103.3472 31.02208 155.08992 4.352 22.26688-0.04608 20.32128-21.76 19.94752-34.28352-0.58368-26.89536-21.61664-27.02848-40.8064-0.12288-18.04288-0.0256-36.08064-0.0256-54.12352l0.28672-0.00512zM982.28224 684.0576c-3.3792 12.6464-10.81856 9.08288-18.4832 6.48192-44.91264-15.26784-89.9072-30.34112-134.84544-45.52192-5.43744-1.82784-10.84928-3.73248-16.11776-5.98016-17.21856-7.35744-18.0992-12.78976-4.14208-24.30976 0.9984-0.81408 1.90976-1.7664 2.99008-2.45248 7.808-5.00224 8.576-20.3264 16.6912-19.39968 10.68032 1.21856 20.70016 9.46176 30.68928 15.232 37.35552 21.57056 74.58816 43.35104 111.84128 65.13152 4.79232 2.81088 10.74688 4.75136 11.37664 10.81856z" fill="#2c2c2c" p-id="3099"></path><path d="M206.43328 609.75616c-0.86016 6.04672-5.59104 7.45472-9.34912 9.66656a41574.41536 41574.41536 0 0 1-136.07936 79.68256c-4.56704 2.66752-9.32352 7.88992-14.42304-0.39424-4.34688-7.0656-0.3328-10.496 4.17792-14.46912 41.57952-36.68992 82.95936-73.6 124.81024-109.9776 9.63584-8.38144 18.76992-10.44992 19.99872 7.52128 0.7168 10.39872 6.28224 19.38944 10.86464 27.97056zM748.87168 609.67936c-0.73216 5.98016-5.39136 7.52128-9.14944 9.71776a43573.32992 43573.32992 0 0 1-137.14944 80.22016c-4.04992 2.35008-8.44288 6.89664-13.04064-0.08192-4.1472-6.2976-1.92-10.34752 3.09248-14.75584 42.112-36.99712 83.87584-74.36288 126.22848-111.06304 11.25888-9.75872 18.90816-5.90848 20.2496 9.63072 0.85504 10.04032 5.85216 18.1504 9.76896 26.33216zM287.86688 592.18944c3.09248 1.64864 7.12192 3.65056 10.99776 5.888 43.39712 25.09824 86.8096 50.18112 130.10432 75.4432 5.11488 2.98496 13.34784 4.87424 9.82528 13.79328-4.03968 10.21952-11.38176 5.14048-17.8176 2.94912-49.8432-16.96256-99.72736-33.80736-149.4784-51.01056-18.7904-6.49728-19.48672-12.25728-4.74624-25.09824 4.74112-4.14208 8.38144-9.6256 12.12416-14.79168 2.19136-3.00032 2.90816-7.33184 8.99072-7.17312z" fill="#2c2c2c" p-id="3100"></path><path d="M802.97472 877.22496c1.11616-45.76256-4.43392-91.0336-6.38464-136.54528a57.20064 57.20064 0 0 0-1.29536-30.58176c-8.38656-25.79968-3.9936-52.16256-5.51936-78.23872-0.65024-11.09504 1.74592-18.33984 12.43648-25.00096 13.44-8.3712 18.4576-22.54336 12.77952-38.88128-5.27872-15.18592-16.43008-23.58784-31.77984-23.88992-16.29184-0.32256-28.46208 8.25856-33.41824 24.27392-4.89984 15.81568-0.9472 30.89408 13.26592 38.89664 11.20256 6.2976 11.61728 13.83936 12.8 24.52992 4.08064 36.78208-8.58624 72.13056-7.64928 108.50816-3.79904 59.6992-7.65952 119.39328-11.39712 179.09248-2.7136 43.42272-2.6624 43.02848 40.82688 41.67168 10.4448-0.32768 13.5168-3.44576 12.3136-13.4144-2.81088-23.43936-7.552-47.01696-6.97856-70.42048z m-30.81216-299.10528c0.75776-6.9376 5.64224-9.7536 12.2624-8.94464 5.96992 0.73728 8.58112 4.80256 8.89856 10.51136-1.5616 6.7328-5.7344 9.95328-12.48256 8.99584-5.8624-0.83968-9.3184-4.65408-8.6784-10.56256zM509.74208 983.76192c-37.97504 0-75.9552 0.04096-113.93024-0.04608-6.83008-0.01536-16.04096 1.89952-16.45568-8.32-0.45568-11.1872 9.0624-10.46016 16.78336-10.46016 75.9552-0.0512 151.9104-0.0512 227.8656 0.00512 7.76704 0.00512 17.2032-0.50688 16.39936 10.79808-0.73728 10.29632-10.04032 7.92064-16.73728 7.94624-37.9648 0.13312-75.94496 0.0768-113.92512 0.0768zM781.07136 983.75168c-25.0624 0-50.11968 0.06144-75.17696-0.05632-4.89984-0.02048-11.79648 1.16736-11.6992-6.25664 0.09728-7.45984 7.13728-5.92384 11.88864-5.9392 50.75456-0.11776 101.51424-0.11776 152.26368-0.00512 4.8128 0.01024 12.09344-1.64864 12.5696 5.25312 0.60928 8.81152-7.4496 6.8864-12.75904 6.92224-25.69216 0.1792-51.39968 0.08192-77.08672 0.08192zM239.23712 983.75168c-25.06752 0-50.13504 0.07168-75.19744-0.06144-4.85888-0.02048-11.70944 1.408-12.09344-5.8624-0.41472-7.81312 6.70208-6.31296 11.42784-6.3232 50.77504-0.12288 101.54496-0.10752 152.32-0.03584 4.97152 0 12.30336-0.95232 12.23168 5.7856-0.09216 8.07936-8.0384 6.41024-13.49632 6.43584-25.0624 0.128-50.1248 0.06144-75.19232 0.06144z" fill="#2c2c2c" p-id="3101"></path></svg>